<svg xmlns="http://www.w3.org/2000/svg" xmlns:xlink="http://www.w3.org/1999/xlink" width="96" height="96" viewBox="0 0 96 96">
  <defs>
    <clipPath id="clip-favicon">
      <rect width="96" height="96"/>
    </clipPath>
  </defs>
  <g id="favicon" clip-path="url(#clip-favicon)">
    <g id="Group_10" data-name="Group 10" transform="translate(7.032 -0.005)">
      <g id="Group_8" data-name="Group 8" transform="translate(0.968 0.005)">
        <path id="Path_3" data-name="Path 3" d="M171.649,21.317c8.312,16.946,4.982,34.627-8.4,47.941L136.375,96,108.887,68.631A40.675,40.675,0,0,1,96.633,38.16,39.628,39.628,0,0,1,138.718.086l-.063,11.384a28.378,28.378,0,1,0,23.067,15.56Z" transform="translate(-96.603 -0.004)" fill="#4b13c0"/>
        <path id="Path_4" data-name="Path 4" d="M338.8,43.908c-.075,9.774-9.144,16.795-18.477,15.97a17.054,17.054,0,1,1,3.794-33.887l.011,11.671a5.74,5.74,0,0,0-7.635,3.391,5.618,5.618,0,0,0,4.038,7.313c2.967.724,6.841-1.348,6.852-4.859L327.514,3.5a39.586,39.586,0,0,1,27.931,18.023l-9.869,5.745a29.843,29.843,0,0,0-6.6-6.937Z" transform="translate(-282.059 -3.12)" fill="#b292f7"/>
      </g>
    </g>
  </g>
</svg>
